<svg xmlns="http://www.w3.org/2000/svg" viewBox="0 0 1418 1000">
  <rect x="16" y="16" width="1386" height="968" rx="30" ry="30" fill="#0c0a17" stroke="#d4a373" stroke-width="4.5" stroke-opacity="1.0"/>
  <rect x="23" y="23" width="1372" height="954" rx="26" ry="26" fill="none" stroke="#d4a373" stroke-width="2.25" stroke-opacity="0.65"/>
  <polygon points="60,43 63.74,56.26 77,60 63.74,63.74 60,77 56.26,63.74 43,60 56.26,56.26" fill="#f0c896"/>
  <polygon points="1358,43 1361.74,56.26 1375,60 1361.74,63.74 1358,77 1354.26,63.74 1341,60 1354.26,56.26" fill="#f0c896"/>
  <polygon points="60,923 63.74,936.26 77,940 63.74,943.74 60,957 56.26,943.74 43,940 56.26,936.26" fill="#f0c896"/>
  <polygon points="1358,923 1361.74,936.26 1375,940 1361.74,943.74 1358,957 1354.26,943.74 1341,940 1354.26,936.26" fill="#f0c896"/>
  <polygon points="709.0,9 716.0,16 709.0,23 702.0,16" fill="#d4a373"/>
  <polygon points="709.0,977 716.0,984 709.0,991 702.0,984" fill="#d4a373"/>
  <polygon points="16,493.0 23,500.0 16,507.0 9,500.0" fill="#d4a373"/>
  <polygon points="1402,493.0 1409,500.0 1402,507.0 1395,500.0" fill="#d4a373"/>
</svg>
