<svg xmlns="http://www.w3.org/2000/svg" viewBox="0 0 1433 920">
  <rect x="16" y="16" width="1401" height="888" rx="58" ry="58" fill="#0c0a17" stroke="#d4a373" stroke-width="5.0" stroke-opacity="0.85"/>
  <polygon points="68,53 71.3,64.7 83,68 71.3,71.3 68,83 64.7,71.3 53,68 64.7,64.7" fill="#f0c896"/>
  <polygon points="1365,53 1368.3,64.7 1380,68 1368.3,71.3 1365,83 1361.7,71.3 1350,68 1361.7,64.7" fill="#f0c896"/>
  <polygon points="68,837 71.3,848.7 83,852 71.3,855.3 68,867 64.7,855.3 53,852 64.7,848.7" fill="#f0c896"/>
  <polygon points="1365,837 1368.3,848.7 1380,852 1368.3,855.3 1365,867 1361.7,855.3 1350,852 1361.7,848.7" fill="#f0c896"/>
  <polygon points="716.5,10 722.5,16 716.5,22 710.5,16" fill="#d4a373"/>
  <polygon points="716.5,898 722.5,904 716.5,910 710.5,904" fill="#d4a373"/>
  <polygon points="16,454.0 22,460.0 16,466.0 10,460.0" fill="#d4a373"/>
  <polygon points="1417,454.0 1423,460.0 1417,466.0 1411,460.0" fill="#d4a373"/>
</svg>
