<svg xmlns="http://www.w3.org/2000/svg" viewBox="0 0 686 629" fill="none">
  <rect x="8" y="8" width="670" height="613" rx="20" ry="20" fill="none" stroke="#d4a373" stroke-width="3.0"/>
  <polygon points="20.4,9.399999999999999 22.82,17.979999999999997 31.4,20.4 22.82,22.82 20.4,31.4 17.979999999999997,22.82 9.399999999999999,20.4 17.979999999999997,17.979999999999997" fill="#f0c896"/>
  <polygon points="665.6,9.399999999999999 668.02,17.979999999999997 676.6,20.4 668.02,22.82 665.6,31.4 663.1800000000001,22.82 654.6,20.4 663.1800000000001,17.979999999999997" fill="#f0c896"/>
  <polygon points="20.4,597.6 22.82,606.1800000000001 31.4,608.6 22.82,611.02 20.4,619.6 17.979999999999997,611.02 9.399999999999999,608.6 17.979999999999997,606.1800000000001" fill="#f0c896"/>
  <polygon points="665.6,597.6 668.02,606.1800000000001 676.6,608.6 668.02,611.02 665.6,619.6 663.1800000000001,611.02 654.6,608.6 663.1800000000001,606.1800000000001" fill="#f0c896"/>
  <polygon points="343.0,3 348.0,8 343.0,13 338.0,8" fill="#d4a373"/>
  <polygon points="343.0,616 348.0,621 343.0,626 338.0,621" fill="#d4a373"/>
  <polygon points="8,309.5 13,314.5 8,319.5 3,314.5" fill="#d4a373"/>
  <polygon points="678,309.5 683,314.5 678,319.5 673,314.5" fill="#d4a373"/>
</svg>
