<svg xmlns="http://www.w3.org/2000/svg" viewBox="0 0 64 64" fill="none">
  <g stroke="#d4a373" stroke-width="1" opacity="0.55">
    <line x1="32" y1="2" x2="32" y2="62"/><line x1="2" y1="32" x2="62" y2="32"/>
    <line x1="11" y1="11" x2="53" y2="53"/><line x1="53" y1="11" x2="11" y2="53"/>
  </g>
  <path d="M32 4 L37 27 L60 32 L37 37 L32 60 L27 37 L4 32 L27 27 Z"
        fill="#b89eff" fill-opacity="0.18" stroke="#f0c896" stroke-width="2" stroke-linejoin="round"/>
  <path d="M32 4 L34.5 29.5 L32 32 L29.5 29.5 Z" fill="#f0c896"/>
  <path d="M32 60 L34.5 34.5 L32 32 L29.5 34.5 Z" fill="#d4a373"/>
  <path d="M4 32 L29.5 34.5 L32 32 L29.5 29.5 Z" fill="#d4a373"/>
  <path d="M60 32 L34.5 29.5 L32 32 L34.5 34.5 Z" fill="#d4a373"/>
  <circle cx="32" cy="32" r="3" fill="#f0c896" stroke="#d4a373" stroke-width="0.8"/>
</svg>
